<svg aria-hidden="true" style="position: absolute; width: 0; height: 0; overflow: hidden;" version="1.1" xmlns="http://www.w3.org/2000/svg" xmlns:xlink="http://www.w3.org/1999/xlink">
<defs>
<symbol id="icon-user" viewBox="0 0 24 32">
<path d="M0 31.99c0-3.234 1.27-6.333 3.561-8.623s5.389-3.561 8.623-3.561c3.234 0 6.333 1.27 8.623 3.561 2.271 2.291 3.561 5.389 3.561 8.623h-24.368zM12.184 18.286c-5.062 0-9.143-4.1-9.143-9.143 0-5.062 4.081-9.143 9.143-9.143 5.043 0 9.143 4.081 9.143 9.143 0 5.043-4.1 9.143-9.143 9.143z"></path>
</symbol>
<symbol id="icon-trash" viewBox="0 0 32 32">
<path stroke-linejoin="round" stroke-linecap="round" stroke-miterlimit="4" stroke-width="2.9091" d="M12 4h8M4 8h24M25.324 8l-0.931 14.022c-0.145 2.095-0.218 3.156-0.669 3.956-0.393 0.698-1.004 1.265-1.731 1.615-0.829 0.407-1.876 0.407-3.985 0.407h-4.029c-2.109 0-3.156 0-3.985-0.407-0.727-0.349-1.338-0.916-1.731-1.615-0.451-0.8-0.524-1.862-0.669-3.956l-0.931-14.022M13.324 13.993v6.662M18.662 13.993v6.662"></path>
</symbol>
<symbol id="icon-logotype" viewBox="0 0 33 32">
<path d="M32.303 9.385c-0.706-0.364-1.446-0.673-2.212-0.932v18.383c-1.716-0.629-3.476-0.949-5.263-0.949-2.863 0-5.688 0.822-8.276 2.411v-18.483c-2.439-1.423-5.252-2.262-8.276-2.262-2.698 0-5.241 0.673-7.481 1.832-0.497 0.243-0.794 0.778-0.794 1.346v18.455c0 0.888 0.706 1.512 1.501 1.512 0.243 0 0.486-0.061 0.723-0.182 1.821-0.966 3.868-1.572 6.052-1.572 3.112 0 5.986 1.252 8.276 3.057 2.284-1.804 5.159-3.057 8.276-3.057 2.179 0 4.226 0.607 6.047 1.589 0.237 0.121 0.48 0.182 0.723 0.182 0.783 0 1.506-0.629 1.506-1.512v-18.472c0-0.568-0.303-1.103-0.8-1.346zM13.539 26.836c-1.716-0.629-3.476-0.949-5.263-0.949-1.793 0-3.553 0.32-5.269 0.949v-15.145c1.672-0.717 3.432-1.081 5.269-1.081 1.804 0 3.592 0.381 5.263 1.098v15.128zM27.084 2.207l-7.526 7.636v14.516l7.526-6.874v-15.277z"></path>
</symbol>
<symbol id="icon-uil-cart" viewBox="0 0 32 32">
<path d="M25.328 9.328h-4v-1.328c0-1.424-0.56-2.784-1.568-3.776-0.992-1.008-2.352-1.568-3.76-1.568-1.424 0-2.784 0.56-3.776 1.568-1.008 0.992-1.568 2.352-1.568 3.776v1.328h-4c-0.352 0-0.688 0.144-0.944 0.384-0.24 0.256-0.384 0.592-0.384 0.944v14.672c0 1.056 0.416 2.080 1.168 2.832 0.752 0.736 1.776 1.168 2.832 1.168h13.328c1.056 0 2.080-0.432 2.832-1.168 0.752-0.752 1.168-1.776 1.168-2.832v-14.672c0-0.352-0.144-0.688-0.384-0.944-0.256-0.24-0.592-0.384-0.944-0.384zM13.328 8c0-0.72 0.272-1.392 0.784-1.888 0.496-0.512 1.168-0.784 1.888-0.784 0.704 0 1.376 0.272 1.872 0.784 0.512 0.496 0.784 1.168 0.784 1.888v1.328h-5.328v-1.328zM24 25.328c0 0.352-0.144 0.688-0.4 0.944-0.256 0.24-0.592 0.384-0.944 0.384h-13.328c-0.352 0-0.688-0.144-0.944-0.384-0.256-0.256-0.384-0.592-0.384-0.944v-13.328h2.656v1.328c0 0.352 0.144 0.688 0.4 0.944 0.24 0.24 0.576 0.384 0.944 0.384 0.352 0 0.688-0.144 0.928-0.384 0.256-0.256 0.4-0.592 0.4-0.944v-1.328h5.328v1.328c0 0.352 0.144 0.688 0.4 0.944 0.24 0.24 0.576 0.384 0.944 0.384 0.352 0 0.688-0.144 0.928-0.384 0.256-0.256 0.4-0.592 0.4-0.944v-1.328h2.672v13.328z"></path>
</symbol>
<symbol id="icon-gerb" viewBox="0 0 20 32">
<path d="M9 30.88c-1.74-1.26-2.99-3.15-3.41-5.35h-5.59v-23.12c2.99 1.45 5.15 4.6 5.38 7.88l0.85 6.49-0.41-0.040c-0.89 0-1.67 0.81-1.67 1.61 0 0.75 0.59 1.38 1.37 1.55l1.020 0.22c1.68-3.050 2.63-6.040 2.63-8.97 0-2.65-0.36-5.29-0.42-8 0-1.2 0.49-2.3 1.25-3.15 0.79 0.85 1.26 1.95 1.26 3.15 0 2.71-0.43 5.35-0.43 8 0 2.93 0.96 5.92 2.63 8.97l1.020-0.22c0.79-0.17 1.38-0.82 1.38-1.55 0-0.81-0.78-1.61-1.68-1.61l-0.42 0.060 0.85-6.49c0.42-3.28 2.39-6.45 5.39-7.88v23.12h-5.58c-0.42 2.18-1.61 4.15-3.41 5.35-0.43 0.28-0.79 0.63-1.020 1.1-0.22-0.47-0.58-0.82-0.99-1.12zM2.64 17.55c0.24-0.86 0.89-1.61 1.74-2.070l-0.66-5.35c-0.23-1.67-0.95-3.16-2.030-4.38v11.79h0.95v0.010zM5.46 23.92c0-0.81 0.13-1.54 0.3-2.3l-0.78-0.18c-1.15-0.34-2.040-1.2-2.34-2.3h-0.95v4.78h3.77zM9.17 23.92c0-0.97-0.78-1.83-1.8-1.95-0.17 0.63-0.3 1.26-0.3 1.95h2.1zM9.17 25.55h-1.86c0.3 1.26 0.95 2.42 1.86 3.39v-3.39zM11.8 20.54c-0.72-1.26-1.37-2.58-1.8-3.97-0.42 1.39-1.080 2.71-1.8 3.97 0.72 0.17 1.32 0.63 1.8 1.16 0.49-0.53 1.080-0.99 1.8-1.16zM12.95 23.92c0-0.69-0.13-1.32-0.3-1.95-1.020 0.12-1.8 0.98-1.8 1.95h2.1zM12.71 25.55h-1.86v3.39c0.91-0.99 1.56-2.13 1.86-3.39zM18.33 23.92v-4.78h-0.95c-0.3 1.1-1.21 1.96-2.33 2.3l-0.79 0.18c0.18 0.76 0.3 1.49 0.3 2.3h3.77zM18.33 17.55v-11.8c-1.080 1.2-1.86 2.71-2.030 4.38l-0.66 5.35c0.85 0.46 1.5 1.2 1.74 2.070h0.95z"></path>
</symbol>
<symbol id="icon-caret-down" viewBox="0 0 28 32">
<path d="M5.895 12h16.505l-7.422 8.382c-0.222 0.258-0.517 0.394-0.825 0.394-0.32 0-0.615-0.135-0.837-0.394l-7.422-8.382z"></path>
</symbol>
<symbol id="icon-arrow-narrow-right" viewBox="0 0 32 32">
<path stroke-linejoin="round" stroke-linecap="round" stroke-miterlimit="4" stroke-width="3.2" d="M5.328 16h21.328M18.656 8l8 8-8 8"></path>
</symbol>
<symbol id="icon-material-symbols" viewBox="0 0 32 32">
<path d="M4.493 19.6l11.2-11.24c0.133-0.133 0.28-0.227 0.427-0.28 0.16-0.053 0.333-0.080 0.507-0.080s0.347 0.027 0.493 0.080c0.16 0.053 0.307 0.147 0.44 0.28l11.227 11.24c0.32 0.307 0.48 0.693 0.48 1.16s-0.173 0.867-0.507 1.2c-0.333 0.333-0.72 0.507-1.16 0.507-0.453 0-0.84-0.173-1.173-0.507l-9.8-9.8-9.8 9.8c-0.307 0.307-0.693 0.467-1.147 0.467s-0.853-0.16-1.187-0.493c-0.333-0.333-0.493-0.733-0.493-1.173s0.16-0.827 0.493-1.16z"></path>
</symbol>
<symbol id="icon-align-left" viewBox="0 0 32 32">
<path stroke-linejoin="round" stroke-linecap="round" stroke-miterlimit="4" stroke-width="2.2857" d="M22.663 13.326h-18.663"></path>
<path stroke-linejoin="round" stroke-linecap="round" stroke-miterlimit="4" stroke-width="2.2857" d="M28 8h-24"></path>
<path stroke-linejoin="round" stroke-linecap="round" stroke-miterlimit="4" stroke-width="2.2857" d="M28 18.663h-24"></path>
<path stroke-linejoin="round" stroke-linecap="round" stroke-miterlimit="4" stroke-width="2.2857" d="M22.663 24h-18.663"></path>
</symbol>
<symbol id="icon-lock" viewBox="0 0 32 32">
<path stroke-linejoin="round" stroke-linecap="round" stroke-miterlimit="4" stroke-width="2.2857" d="M9.326 14.663v-4c0-3.68 2.983-6.663 6.674-6.663 3.68 0 6.663 2.983 6.663 6.663v4M21.589 14.663c2.251 0 3.371 0 4.217 0.434 0.754 0.389 1.371 0.994 1.749 1.749 0.446 0.857 0.446 1.977 0.446 4.217v0.537c0 2.24 0 3.36-0.446 4.206-0.377 0.754-0.994 1.371-1.749 1.749-0.846 0.446-1.966 0.446-4.217 0.446h-11.189c-2.251 0-3.371 0-4.217-0.446-0.754-0.377-1.371-0.994-1.749-1.749-0.434-0.846-0.434-1.966-0.434-4.206v-0.537c0-2.24 0-3.36 0.434-4.217 0.377-0.754 0.994-1.36 1.749-1.749 0.846-0.434 1.966-0.434 4.217-0.434h11.189z"></path>
</symbol>
<symbol id="icon-mail" viewBox="0 0 32 32">
<path stroke-linejoin="round" stroke-linecap="round" stroke-miterlimit="4" stroke-width="2.2857" d="M22.926 5.326c2.24 0 3.36 0 4.217 0.434 0.754 0.389 1.36 0.994 1.749 1.749 0.434 0.857 0.434 1.977 0.434 4.217v8.537c0 2.24 0 3.36-0.434 4.217-0.389 0.754-0.994 1.36-1.749 1.749-0.857 0.434-1.977 0.434-4.217 0.434h-13.863c-2.24 0-3.36 0-4.217-0.434-0.754-0.389-1.36-0.994-1.749-1.749-0.434-0.857-0.434-1.977-0.434-4.217v-8.537c0-2.24 0-3.36 0.434-4.217 0.389-0.754 0.994-1.36 1.749-1.749 0.857-0.434 1.977-0.434 4.217-0.434h13.863zM28.663 24l-8.857-8M12.183 16l-8.857 8M2.663 9.326l10.88 7.623c0.891 0.617 1.326 0.926 1.806 1.040 0.423 0.114 0.869 0.114 1.291 0 0.48-0.114 0.914-0.423 1.806-1.040l10.88-7.623"></path>
</symbol>
</defs>
</svg>
